<?xml version="1.0" encoding="utf-8"?>
<!-- Generator: Adobe Illustrator 26.5.0, SVG Export Plug-In . SVG Version: 6.00 Build 0)  -->
<svg version="1.1" id="Livello_1" xmlns="http://www.w3.org/2000/svg" xmlns:xlink="http://www.w3.org/1999/xlink" x="0px" y="0px"
	 viewBox="0 0 1353 250" style="enable-background:new 0 0 1353 250;" xml:space="preserve">
<style type="text/css">
	.st0{fill:#FFFFFF;}
	.st1{fill:#D7D7D7;}
	.st2{fill:#EBEBEB;}
	.st3{fill:none;}
	.st4{fill:#0360D9;}
</style>
<g>
	<g>
		<polygon class="st0" points="18.1,58.8 21.4,199.3 143,241 140.3,100.2 		"/>
		<polygon class="st1" points="140.3,100.2 235.6,47.1 239.7,188.5 143,241 		"/>
		<polygon class="st2" points="113.3,8 18.1,58.8 140.3,100.2 235.6,47.1 		"/>
		<g>
			<polygon class="st3" points="143,230.1 21.3,192.2 18.1,63.7 140.5,107.5 			"/>
			<g>
				<path class="st4" d="M72.8,185.6c-4.1-4.5-6.1-10.8-6.1-18.7v-28.8l-8.9-2.7v-18l8.9,2.7v-14.7l24.9,7.6v14.7l11.8,3.6v18
					l-11.8-3.6v25c0,2.7,0.6,4.9,1.9,6.4c1.2,1.6,3.1,2.7,5.7,3.5c0.9,0.3,1.7,0.5,2.3,0.6c0.6,0.1,1.3,0.3,1.9,0.4V199
					c-1.3-0.2-2.9-0.4-4.8-0.8c-1.8-0.4-4.1-1-6.7-1.8C83.2,193.8,76.8,190.2,72.8,185.6z"/>
			</g>
		</g>
	</g>
	<g class="st0">
		<g>
			<path d="M831.4,207.1v-21.8h8c1.4,0,2.6,0.2,3.5,0.5c0.9,0.3,1.6,0.8,2.2,1.3c0.5,0.6,0.9,1.2,1.1,2c0.2,0.7,0.3,1.5,0.3,2.3
				c0,1.2-0.2,2.2-0.7,3c-0.5,0.8-1.1,1.4-1.9,1.9c-0.8,0.5-1.7,0.8-2.7,1c-1,0.2-2,0.3-3,0.3h-4.7v9.6H831.4z M838.1,195.7
				c1,0,1.8-0.1,2.6-0.2c0.8-0.1,1.4-0.3,2-0.7c0.5-0.3,0.9-0.8,1.2-1.4c0.3-0.6,0.4-1.3,0.4-2.3c0-1.4-0.4-2.4-1.3-3.1
				c-0.9-0.7-2.3-1.1-4.3-1.1h-5.3v8.7H838.1z"/>
			<path d="M855.9,207.5c-1,0-2-0.2-2.8-0.5c-0.9-0.3-1.6-0.9-2.3-1.5c-0.7-0.7-1.2-1.5-1.6-2.6c-0.4-1-0.6-2.2-0.6-3.6
				c0-1.2,0.2-2.2,0.5-3.2c0.3-1,0.8-1.9,1.4-2.6c0.6-0.7,1.4-1.3,2.3-1.8c0.9-0.4,2-0.7,3.2-0.7c1.2,0,2.3,0.2,3.2,0.7
				c0.9,0.4,1.7,1,2.3,1.8c0.6,0.7,1.1,1.6,1.3,2.6c0.3,1,0.4,2.1,0.4,3.2c0,1.3-0.2,2.4-0.5,3.4s-0.8,1.9-1.5,2.6
				c-0.6,0.7-1.4,1.3-2.3,1.7S857,207.5,855.9,207.5z M861.3,199.3c0-0.9-0.1-1.8-0.3-2.6c-0.2-0.8-0.5-1.5-0.9-2.1
				c-0.4-0.6-1-1.1-1.6-1.4c-0.7-0.3-1.5-0.5-2.5-0.5c-0.9,0-1.8,0.2-2.4,0.6c-0.7,0.4-1.2,0.9-1.7,1.5c-0.4,0.6-0.7,1.3-0.9,2.1
				c-0.2,0.8-0.3,1.6-0.3,2.5c0,1,0.1,1.9,0.3,2.7c0.2,0.8,0.6,1.5,1,2.1c0.4,0.6,1,1,1.7,1.4c0.7,0.3,1.4,0.5,2.3,0.5
				c0.9,0,1.8-0.2,2.4-0.6s1.2-0.9,1.7-1.5c0.4-0.6,0.7-1.3,0.9-2.1C861.2,200.9,861.3,200.1,861.3,199.3z"/>
			<path d="M879.8,204.7l4.1-13.3h1.8l-5.1,15.7h-1.9l-3.4-13.2h-0.1l-3.5,13.2h-2.2l-4.8-15.7h1.8l4.1,13.4l3.6-13.4h2L879.8,204.7
				z"/>
			<path d="M889.5,199.7c0,0.8,0.1,1.7,0.3,2.4c0.2,0.8,0.6,1.4,1,2c0.4,0.6,1,1,1.7,1.3s1.4,0.5,2.3,0.5c1.2,0,2.2-0.3,3.1-0.9
				c0.8-0.6,1.4-1.5,1.7-2.7h2c-0.2,0.7-0.5,1.4-0.9,2.1c-0.4,0.6-0.8,1.2-1.4,1.7c-0.5,0.5-1.2,0.8-1.9,1.1
				c-0.7,0.3-1.6,0.4-2.6,0.4c-1.3,0-2.3-0.2-3.2-0.6c-0.9-0.4-1.7-1-2.2-1.7c-0.6-0.7-1-1.6-1.3-2.6c-0.3-1-0.4-2.1-0.4-3.2
				s0.2-2.2,0.5-3.2c0.3-1,0.8-1.9,1.4-2.7c0.6-0.8,1.4-1.4,2.3-1.8c0.9-0.4,1.9-0.7,3-0.7c2.2,0,3.9,0.7,5.1,2.2
				c1.2,1.5,1.8,3.6,1.8,6.5H889.5z M899.8,198.2c0-0.8-0.1-1.5-0.3-2.2c-0.2-0.7-0.5-1.3-0.9-1.8c-0.4-0.5-0.9-0.9-1.6-1.2
				c-0.6-0.3-1.3-0.4-2.2-0.4c-0.8,0-1.5,0.2-2.1,0.5c-0.6,0.3-1.1,0.7-1.6,1.2c-0.4,0.5-0.8,1.1-1,1.8c-0.3,0.7-0.4,1.4-0.5,2.1
				H899.8z"/>
			<path d="M907.2,207.1h-1.8v-15.7h1.8v2.9h0.1c0.5-1.3,1.2-2.1,2-2.6c0.8-0.5,1.9-0.7,3.2-0.7v2c-1,0-1.9,0.1-2.5,0.5
				c-0.7,0.3-1.2,0.8-1.6,1.4c-0.4,0.6-0.7,1.3-0.8,2.1c-0.2,0.8-0.2,1.6-0.2,2.5V207.1z"/>
			<path d="M916.5,199.7c0,0.8,0.1,1.7,0.3,2.4c0.2,0.8,0.5,1.4,1,2c0.4,0.6,1,1,1.7,1.3c0.7,0.3,1.4,0.5,2.3,0.5
				c1.2,0,2.2-0.3,3.1-0.9c0.8-0.6,1.4-1.5,1.7-2.7h2c-0.2,0.7-0.5,1.4-0.9,2.1c-0.4,0.6-0.8,1.2-1.4,1.7c-0.5,0.5-1.2,0.8-1.9,1.1
				c-0.7,0.3-1.6,0.4-2.6,0.4c-1.3,0-2.3-0.2-3.2-0.6c-0.9-0.4-1.7-1-2.2-1.7s-1-1.6-1.3-2.6c-0.3-1-0.4-2.1-0.4-3.2
				s0.2-2.2,0.5-3.2c0.3-1,0.8-1.9,1.4-2.7c0.6-0.8,1.4-1.4,2.3-1.8c0.9-0.4,1.9-0.7,3-0.7c2.2,0,3.9,0.7,5.1,2.2
				c1.2,1.5,1.8,3.6,1.8,6.5H916.5z M926.7,198.2c0-0.8-0.1-1.5-0.3-2.2c-0.2-0.7-0.5-1.3-0.9-1.8c-0.4-0.5-0.9-0.9-1.6-1.2
				c-0.6-0.3-1.3-0.4-2.2-0.4c-0.8,0-1.5,0.2-2.1,0.5c-0.6,0.3-1.1,0.7-1.6,1.2c-0.4,0.5-0.8,1.1-1,1.8c-0.3,0.7-0.4,1.4-0.5,2.1
				H926.7z"/>
			<path d="M944.3,185.3h1.8v21.8h-1.8v-2.8h-0.1c-0.3,0.5-0.6,1-1,1.4c-0.4,0.4-0.9,0.7-1.4,1c-0.5,0.3-1,0.5-1.5,0.6
				c-0.5,0.1-1,0.2-1.5,0.2c-1.3,0-2.4-0.2-3.2-0.6c-0.9-0.4-1.6-1-2.2-1.7c-0.6-0.7-1-1.6-1.3-2.6c-0.3-1-0.4-2.1-0.4-3.2
				c0-1.1,0.1-2.1,0.4-3.2c0.3-1,0.7-1.9,1.3-2.7c0.6-0.8,1.3-1.4,2.2-1.8c0.9-0.5,1.9-0.7,3.1-0.7c1.1,0,2.2,0.2,3.2,0.7
				s1.8,1.2,2.4,2.2V185.3z M944.3,199.2c0-0.9-0.1-1.7-0.4-2.5c-0.2-0.8-0.6-1.5-1-2.1c-0.5-0.6-1-1.1-1.7-1.4
				c-0.7-0.4-1.4-0.5-2.2-0.5c-0.9,0-1.8,0.2-2.5,0.6c-0.7,0.4-1.3,0.9-1.7,1.5c-0.4,0.6-0.8,1.4-1,2.3c-0.2,0.9-0.3,1.8-0.2,2.8
				c0,1,0.1,1.9,0.4,2.6c0.3,0.8,0.7,1.4,1.1,1.9c0.5,0.5,1,0.9,1.7,1.2c0.6,0.3,1.4,0.4,2.1,0.4c0.8,0,1.6-0.2,2.3-0.5
				c0.7-0.3,1.2-0.8,1.7-1.4c0.4-0.6,0.8-1.3,1-2.1C944.2,201,944.3,200.2,944.3,199.2z"/>
			<path d="M961.1,207.1h-1.8v-21.8h1.8v8.6c0.6-1,1.4-1.7,2.4-2.2c1-0.5,2.1-0.7,3.2-0.7c1.2,0,2.2,0.2,3.1,0.7
				c0.9,0.5,1.6,1.1,2.2,1.8c0.6,0.8,1,1.6,1.3,2.7c0.3,1,0.4,2.1,0.4,3.2c0,1.2-0.1,2.2-0.4,3.2c-0.3,1-0.7,1.9-1.3,2.6
				c-0.6,0.7-1.3,1.3-2.2,1.7c-0.9,0.4-2,0.6-3.2,0.6c-0.5,0-1-0.1-1.5-0.2c-0.5-0.1-1-0.3-1.5-0.6c-0.5-0.3-0.9-0.6-1.4-1
				c-0.4-0.4-0.8-0.9-1-1.4h-0.1V207.1z M961.1,199.2c0,0.9,0.1,1.8,0.3,2.7c0.2,0.8,0.6,1.5,1,2.1c0.4,0.6,1,1.1,1.7,1.4
				c0.7,0.3,1.4,0.5,2.3,0.5c0.8,0,1.5-0.1,2.1-0.4s1.2-0.7,1.7-1.2c0.5-0.5,0.9-1.2,1.1-1.9c0.3-0.8,0.4-1.6,0.4-2.6
				c0-1,0-1.9-0.2-2.8c-0.2-0.9-0.5-1.6-1-2.3c-0.4-0.6-1-1.2-1.7-1.5c-0.7-0.4-1.5-0.6-2.4-0.6c-0.8,0-1.6,0.2-2.2,0.5
				c-0.7,0.4-1.2,0.8-1.7,1.4c-0.5,0.6-0.8,1.3-1,2.1C961.3,197.5,961.1,198.3,961.1,199.2z"/>
			<path d="M977.5,211.4c0.2,0,0.5,0.1,0.7,0.1c0.3,0,0.5,0.1,0.8,0.1c0.5,0,0.9-0.2,1.2-0.5s0.6-0.7,0.8-1.2
				c0.2-0.5,0.4-0.9,0.5-1.4c0.1-0.5,0.3-0.9,0.5-1.3l-6.1-15.8h2l5,13.5l5-13.5h2l-5.8,15.5c-0.4,1-0.7,1.9-1,2.7
				c-0.3,0.8-0.7,1.5-1.1,2c-0.4,0.6-0.8,1-1.2,1.3c-0.5,0.3-1,0.4-1.6,0.4c-0.3,0-0.6,0-0.9-0.1c-0.3,0-0.6-0.1-0.8-0.2V211.4z"/>
			<path d="M1016.9,191.6c-0.4-1.9-1.2-3.2-2.4-4s-2.7-1.2-4.5-1.2c-1.3,0-2.4,0.3-3.4,0.8c-0.9,0.5-1.7,1.2-2.3,2.1
				c-0.6,0.9-1.1,1.9-1.4,3.1c-0.3,1.2-0.4,2.4-0.4,3.7c0,1.2,0.1,2.4,0.4,3.6c0.3,1.2,0.7,2.2,1.3,3.1c0.6,0.9,1.4,1.7,2.4,2.2
				c1,0.6,2.2,0.8,3.7,0.8c0.9,0,1.8-0.2,2.5-0.5c0.8-0.3,1.4-0.7,2-1.3c0.6-0.5,1.1-1.2,1.5-1.9c0.4-0.7,0.7-1.5,0.9-2.4h2.2
				c-0.2,1.1-0.6,2-1.1,3c-0.5,0.9-1.1,1.8-1.8,2.5c-0.8,0.7-1.7,1.3-2.8,1.7c-1.1,0.4-2.3,0.6-3.8,0.6c-1.7,0-3.1-0.3-4.3-0.9
				c-1.2-0.6-2.2-1.4-2.9-2.5c-0.8-1.1-1.3-2.3-1.7-3.7c-0.3-1.4-0.5-2.9-0.5-4.4c0-2.1,0.3-3.8,0.8-5.3c0.5-1.5,1.2-2.6,2.1-3.6
				c0.9-0.9,2-1.6,3.2-2c1.2-0.4,2.6-0.6,4-0.6c1.1,0,2.1,0.1,3.1,0.4c1,0.3,1.8,0.7,2.5,1.3c0.7,0.6,1.3,1.3,1.8,2.2
				c0.5,0.9,0.8,1.9,1,3H1016.9z"/>
			<path d="M1029.3,207.5c-1,0-2-0.2-2.8-0.5c-0.9-0.3-1.6-0.9-2.3-1.5c-0.7-0.7-1.2-1.5-1.6-2.6c-0.4-1-0.6-2.2-0.6-3.6
				c0-1.2,0.2-2.2,0.5-3.2c0.3-1,0.8-1.9,1.4-2.6c0.6-0.7,1.4-1.3,2.3-1.8c0.9-0.4,2-0.7,3.2-0.7c1.2,0,2.3,0.2,3.2,0.7
				c0.9,0.4,1.7,1,2.3,1.8c0.6,0.7,1.1,1.6,1.3,2.6c0.3,1,0.4,2.1,0.4,3.2c0,1.3-0.2,2.4-0.5,3.4s-0.8,1.9-1.5,2.6
				c-0.6,0.7-1.4,1.3-2.3,1.7C1031.4,207.3,1030.4,207.5,1029.3,207.5z M1034.6,199.3c0-0.9-0.1-1.8-0.3-2.6
				c-0.2-0.8-0.5-1.5-0.9-2.1c-0.4-0.6-1-1.1-1.6-1.4c-0.7-0.3-1.5-0.5-2.5-0.5c-0.9,0-1.8,0.2-2.4,0.6c-0.7,0.4-1.2,0.9-1.7,1.5
				c-0.4,0.6-0.7,1.3-0.9,2.1c-0.2,0.8-0.3,1.6-0.3,2.5c0,1,0.1,1.9,0.3,2.7c0.2,0.8,0.6,1.5,1,2.1c0.4,0.6,1,1,1.7,1.4
				c0.7,0.3,1.4,0.5,2.3,0.5c0.9,0,1.8-0.2,2.4-0.6s1.2-0.9,1.7-1.5c0.4-0.6,0.7-1.3,0.9-2.1
				C1034.5,200.9,1034.6,200.1,1034.6,199.3z"/>
			<path d="M1041.7,207.1h-1.8v-15.7h1.8v2.2c0.7-0.8,1.5-1.4,2.3-1.9c0.8-0.5,1.7-0.7,2.8-0.7c1,0,1.9,0.2,2.7,0.5
				c0.8,0.3,1.5,0.9,2.1,1.7c0.4,0.6,0.6,1.1,0.7,1.7c0.1,0.6,0.1,1.2,0.1,1.9v10.3h-1.8v-10.2c0-1.4-0.3-2.5-0.9-3.2
				c-0.6-0.7-1.7-1.1-3.1-1.1c-0.6,0-1.1,0.1-1.5,0.3c-0.5,0.2-0.9,0.4-1.3,0.7c-0.4,0.3-0.7,0.6-1,1c-0.3,0.4-0.5,0.7-0.6,1.2
				c-0.2,0.5-0.3,1-0.3,1.5c0,0.5-0.1,1-0.1,1.5V207.1z"/>
			<path d="M1062.3,207.2c-0.2,0-0.5,0.1-0.9,0.2c-0.4,0.1-0.8,0.2-1.2,0.2c-0.9,0-1.6-0.2-2.1-0.7c-0.5-0.5-0.7-1.3-0.7-2.4v-11.5
				h-2.2v-1.5h2.2v-4.4h1.8v4.4h2.9v1.5h-2.9v10.8c0,0.4,0,0.7,0,1c0,0.3,0.1,0.5,0.2,0.7c0.1,0.2,0.3,0.3,0.5,0.4
				c0.2,0.1,0.5,0.1,0.9,0.1c0.2,0,0.5,0,0.7-0.1c0.3,0,0.5-0.1,0.7-0.2V207.2z"/>
			<path d="M1067.1,207.1h-1.8v-15.7h1.8v2.9h0.1c0.5-1.3,1.2-2.1,2-2.6c0.8-0.5,1.9-0.7,3.2-0.7v2c-1,0-1.9,0.1-2.5,0.5
				c-0.7,0.3-1.2,0.8-1.6,1.4c-0.4,0.6-0.7,1.3-0.8,2.1c-0.2,0.8-0.2,1.6-0.2,2.5V207.1z"/>
			<path d="M1082.5,198c0.3,0,0.8-0.1,1.2-0.2c0.5-0.1,0.9-0.2,1.2-0.3c0.3-0.1,0.5-0.4,0.6-0.7c0.1-0.3,0.1-0.6,0.1-0.9
				c0-0.9-0.3-1.7-0.9-2.3c-0.6-0.6-1.6-0.9-3-0.9c-0.6,0-1.2,0.1-1.7,0.2c-0.5,0.1-1,0.3-1.4,0.6c-0.4,0.3-0.7,0.6-1,1.1
				c-0.3,0.5-0.4,1-0.5,1.7h-1.8c0.1-0.9,0.3-1.7,0.6-2.4c0.4-0.7,0.8-1.2,1.4-1.6c0.6-0.4,1.2-0.7,2-0.9c0.8-0.2,1.6-0.3,2.4-0.3
				c0.8,0,1.5,0.1,2.2,0.3c0.7,0.2,1.3,0.4,1.8,0.8c0.5,0.4,0.9,0.9,1.2,1.5c0.3,0.6,0.4,1.4,0.4,2.3v8.5c0,0.7,0.1,1.2,0.4,1.3
				c0.3,0.2,0.8,0.1,1.5-0.1v1.4c-0.1,0-0.3,0.1-0.6,0.2c-0.3,0.1-0.5,0.1-0.8,0.1c-0.3,0-0.6,0-0.8-0.1c-0.3,0-0.5-0.1-0.7-0.3
				c-0.2-0.2-0.3-0.3-0.4-0.5c-0.1-0.2-0.2-0.4-0.2-0.7c0-0.3-0.1-0.5-0.1-0.8c-0.8,0.8-1.6,1.5-2.6,1.9c-1,0.4-2.1,0.7-3.2,0.7
				c-0.7,0-1.3-0.1-2-0.3c-0.6-0.2-1.2-0.5-1.7-0.8c-0.5-0.4-0.9-0.9-1.2-1.4c-0.3-0.6-0.4-1.2-0.4-2c0-2.7,1.8-4.2,5.5-4.7
				L1082.5,198z M1085.5,198.9c-0.8,0.3-1.5,0.5-2.3,0.6c-0.8,0.1-1.6,0.2-2.4,0.2c-1.4,0.1-2.5,0.4-3.3,0.9
				c-0.8,0.5-1.2,1.3-1.2,2.4c0,0.5,0.1,0.9,0.3,1.3c0.2,0.4,0.4,0.6,0.8,0.9c0.3,0.2,0.7,0.4,1.1,0.5c0.4,0.1,0.8,0.2,1.3,0.2
				c0.7,0,1.4-0.1,2.1-0.3c0.7-0.2,1.3-0.5,1.8-0.8c0.5-0.4,1-0.8,1.3-1.4c0.3-0.6,0.5-1.3,0.5-2V198.9z"/>
			<path d="M1104.2,185.3h1.8v21.8h-1.8v-2.8h-0.1c-0.3,0.5-0.6,1-1,1.4c-0.4,0.4-0.9,0.7-1.4,1c-0.5,0.3-1,0.5-1.5,0.6
				c-0.5,0.1-1,0.2-1.5,0.2c-1.3,0-2.4-0.2-3.2-0.6c-0.9-0.4-1.6-1-2.2-1.7c-0.6-0.7-1-1.6-1.3-2.6c-0.3-1-0.4-2.1-0.4-3.2
				c0-1.1,0.1-2.1,0.4-3.2c0.3-1,0.7-1.9,1.3-2.7c0.6-0.8,1.3-1.4,2.2-1.8c0.9-0.5,1.9-0.7,3.1-0.7c1.1,0,2.2,0.2,3.2,0.7
				c1,0.5,1.8,1.2,2.4,2.2V185.3z M1104.2,199.2c0-0.9-0.1-1.7-0.4-2.5c-0.2-0.8-0.6-1.5-1-2.1c-0.5-0.6-1-1.1-1.7-1.4
				c-0.7-0.4-1.4-0.5-2.2-0.5c-0.9,0-1.8,0.2-2.5,0.6s-1.3,0.9-1.7,1.5c-0.4,0.6-0.8,1.4-1,2.3c-0.2,0.9-0.3,1.8-0.2,2.8
				c0,1,0.1,1.9,0.4,2.6c0.3,0.8,0.7,1.4,1.1,1.9c0.5,0.5,1,0.9,1.7,1.2c0.6,0.3,1.4,0.4,2.1,0.4c0.8,0,1.6-0.2,2.3-0.5
				c0.7-0.3,1.2-0.8,1.7-1.4c0.4-0.6,0.8-1.3,1-2.1C1104.1,201,1104.2,200.2,1104.2,199.2z"/>
			<path d="M1111.7,199.7c0,0.8,0.1,1.7,0.3,2.4c0.2,0.8,0.6,1.4,1,2c0.4,0.6,1,1,1.7,1.3c0.7,0.3,1.4,0.5,2.3,0.5
				c1.2,0,2.2-0.3,3.1-0.9c0.8-0.6,1.4-1.5,1.7-2.7h2c-0.2,0.7-0.5,1.4-0.9,2.1c-0.4,0.6-0.8,1.2-1.4,1.7c-0.5,0.5-1.2,0.8-1.9,1.1
				c-0.7,0.3-1.6,0.4-2.6,0.4c-1.3,0-2.3-0.2-3.2-0.6c-0.9-0.4-1.7-1-2.2-1.7s-1-1.6-1.3-2.6c-0.3-1-0.4-2.1-0.4-3.2
				s0.2-2.2,0.5-3.2c0.3-1,0.8-1.9,1.4-2.7c0.6-0.8,1.4-1.4,2.3-1.8c0.9-0.4,1.9-0.7,3-0.7c2.2,0,3.9,0.7,5.1,2.2
				c1.2,1.5,1.8,3.6,1.8,6.5H1111.7z M1122,198.2c0-0.8-0.1-1.5-0.3-2.2c-0.2-0.7-0.5-1.3-0.9-1.8c-0.4-0.5-0.9-0.9-1.6-1.2
				c-0.6-0.3-1.3-0.4-2.2-0.4c-0.8,0-1.5,0.2-2.1,0.5c-0.6,0.3-1.1,0.7-1.6,1.2c-0.4,0.5-0.8,1.1-1,1.8c-0.3,0.7-0.4,1.4-0.5,2.1
				H1122z"/>
			<path d="M1129.4,207.1h-1.8v-15.7h1.8v2.9h0.1c0.5-1.3,1.2-2.1,2-2.6c0.8-0.5,1.9-0.7,3.2-0.7v2c-1,0-1.9,0.1-2.5,0.5
				c-0.7,0.3-1.2,0.8-1.6,1.4c-0.4,0.6-0.7,1.3-0.8,2.1c-0.2,0.8-0.2,1.6-0.2,2.5V207.1z"/>
		</g>
		<g>
			<path d="M294.4,162.3c-4.9-4.1-7.4-11.1-7.4-20.8V101h-11.7V80.4H287V60.5h28.2v19.9h15.5V101h-15.5v36.7c0,3.7,0.8,6.3,2.5,7.9
				c1.7,1.6,4.2,2.3,7.6,2.3c1.2,0,2.1,0,2.9-0.1c0.8-0.1,1.6-0.2,2.4-0.3v20c-1.5,0.3-3.4,0.5-5.5,0.7c-2.2,0.2-4.7,0.3-7.7,0.3
				C307,168.5,299.3,166.4,294.4,162.3z"/>
			<path d="M359.4,163.1c-6.6-3.6-11.6-8.8-15.1-15.5c-3.5-6.7-5.3-14.7-5.3-24v-0.1c0-9.2,1.8-17.2,5.3-23.9
				c3.5-6.7,8.5-11.9,14.9-15.5c6.4-3.6,14-5.5,22.7-5.5c8.7,0,16.3,1.8,22.7,5.4c6.4,3.6,11.3,8.6,14.8,15.1s5.2,14.1,5.2,22.8v8.2
				h-71.8v-16.6h58.6L398.4,129v-10.9c0-4.2-0.7-7.7-2-10.7c-1.3-2.9-3.2-5.1-5.5-6.7c-2.4-1.5-5.2-2.3-8.3-2.3
				c-3.2,0-6,0.8-8.4,2.3c-2.4,1.5-4.3,3.8-5.6,6.7s-2,6.5-2,10.6V129c0,4.1,0.7,7.6,2,10.5c1.3,2.9,3.3,5.1,5.8,6.7
				c2.5,1.6,5.5,2.3,9,2.3c3,0,5.6-0.5,7.7-1.4c2.1-1,3.8-2.1,5-3.5c1.2-1.4,2.1-2.7,2.5-3.9l0.1-0.3h25.4l-0.2,1
				c-0.6,3-1.8,6.1-3.6,9.4c-1.8,3.3-4.3,6.3-7.5,9.2c-3.2,2.9-7.2,5.2-12.1,6.9c-4.9,1.8-10.8,2.7-17.7,2.7
				C373.8,168.5,365.9,166.7,359.4,163.1z"/>
			<path d="M435.9,52.3H464v114.4h-28.1V52.3z"/>
			<path d="M495.8,163.1c-6.6-3.6-11.6-8.8-15.1-15.5c-3.5-6.7-5.3-14.7-5.3-24v-0.1c0-9.2,1.8-17.2,5.3-23.9
				c3.5-6.7,8.5-11.9,14.9-15.5c6.4-3.6,14-5.5,22.7-5.5s16.3,1.8,22.7,5.4c6.4,3.6,11.3,8.6,14.8,15.1s5.2,14.1,5.2,22.8v8.2h-71.8
				v-16.6h58.6L534.8,129v-10.9c0-4.2-0.7-7.7-2-10.7c-1.3-2.9-3.2-5.1-5.5-6.7c-2.4-1.5-5.2-2.3-8.3-2.3s-6,0.8-8.4,2.3
				c-2.4,1.5-4.3,3.8-5.6,6.7c-1.3,2.9-2,6.5-2,10.6V129c0,4.1,0.7,7.6,2,10.5c1.3,2.9,3.3,5.1,5.8,6.7c2.5,1.6,5.5,2.3,9,2.3
				c3,0,5.6-0.5,7.7-1.4c2.1-1,3.8-2.1,5-3.5c1.2-1.4,2.1-2.7,2.5-3.9l0.1-0.3h25.4l-0.2,1c-0.6,3-1.8,6.1-3.6,9.4
				c-1.8,3.3-4.3,6.3-7.5,9.2c-3.2,2.9-7.2,5.2-12.1,6.9c-4.9,1.8-10.8,2.7-17.7,2.7C510.2,168.5,502.3,166.7,495.8,163.1z"/>
			<path d="M561.7,80.4h30.2l15.1,62.8h0.6l14.7-62.8h29.4l-28.5,86.3h-32.6L561.7,80.4z"/>
			<path d="M662.3,67c-2.8-2.7-4.2-6-4.2-9.7c0-3.8,1.4-7.1,4.2-9.8c2.8-2.7,6.2-4.1,10.2-4.1c4.1,0,7.5,1.4,10.2,4.1
				c2.7,2.7,4.1,6,4.1,9.8c0,3.8-1.4,7-4.1,9.7c-2.7,2.7-6.2,4.1-10.2,4.1C668.5,71.1,665.1,69.7,662.3,67z M658.5,80.4h28.1v86.3
				h-28.1V80.4z"/>
			<path d="M716.6,165c-5.9-2.3-10.5-5.6-13.8-9.9c-3.3-4.2-5.2-9.1-5.9-14.7l-0.1-0.7h27.3l0.2,0.6c0.7,2.9,2.2,5.2,4.5,6.8
				c2.3,1.6,5.5,2.5,9.6,2.5c2.5,0,4.6-0.3,6.4-0.9c1.8-0.6,3.2-1.4,4.1-2.5c1-1.1,1.4-2.3,1.4-3.8v-0.1c0-1.9-0.8-3.4-2.3-4.6
				c-1.6-1.2-4.3-2.2-8.1-3l-15.2-2.9c-8.5-1.7-14.8-4.7-19.2-9s-6.5-9.7-6.5-16.3v-0.1c0-5.8,1.5-10.7,4.6-14.9
				c3.1-4.1,7.5-7.4,13.3-9.6c5.8-2.3,12.6-3.4,20.4-3.4c8.3,0,15.4,1.3,21,3.8c5.7,2.6,10,6,13,10.2c3,4.3,4.5,9,4.5,14.1v0.6
				h-25.7l-0.1-0.6c-0.3-2.5-1.5-4.7-3.6-6.5c-2.2-1.8-5.2-2.7-9.1-2.7c-2.3,0-4.3,0.3-5.9,0.9c-1.7,0.6-3,1.5-3.9,2.5
				c-0.9,1.1-1.4,2.4-1.4,3.9v0.1c0,1.9,0.8,3.4,2.3,4.6c1.5,1.2,4.4,2.2,8.5,3l15.1,3c9.2,1.8,15.9,4.6,20.1,8.4
				c4.1,3.8,6.2,8.9,6.2,15.3v0.1c0,5.9-1.7,11.1-5.1,15.5c-3.4,4.4-8.1,7.8-14,10.1c-6,2.4-12.9,3.6-20.8,3.6
				C729.7,168.5,722.5,167.3,716.6,165z"/>
			<path d="M792.2,67c-2.8-2.7-4.2-6-4.2-9.7c0-3.8,1.4-7.1,4.2-9.8c2.8-2.7,6.2-4.1,10.2-4.1c4.1,0,7.5,1.4,10.2,4.1
				c2.7,2.7,4.1,6,4.1,9.8c0,3.8-1.4,7-4.1,9.7c-2.7,2.7-6.2,4.1-10.2,4.1C798.4,71.1,795,69.7,792.2,67z M788.4,80.4h28.1v86.3
				h-28.1V80.4z"/>
			<path d="M848.2,163.2c-6.6-3.5-11.7-8.7-15.3-15.4c-3.6-6.7-5.3-14.8-5.3-24.3v-0.2c0-9.3,1.8-17.3,5.5-24.1s8.8-11.9,15.4-15.5
				c6.6-3.6,14.4-5.4,23.3-5.4c9,0,16.8,1.8,23.4,5.4c6.6,3.6,11.7,8.7,15.4,15.4c3.6,6.7,5.5,14.7,5.5,24.1v0.2
				c0,9.5-1.8,17.6-5.4,24.3c-3.6,6.7-8.7,11.8-15.3,15.3c-6.6,3.5-14.4,5.3-23.6,5.3C862.7,168.5,854.8,166.7,848.2,163.2z
				 M880.2,144.4c2.3-1.8,4.1-4.5,5.3-8c1.2-3.5,1.9-7.8,1.9-12.8v-0.2c0-5-0.6-9.2-1.9-12.7c-1.3-3.5-3.1-6.2-5.4-8
				c-2.3-1.8-5.1-2.8-8.2-2.8c-3.1,0-5.9,0.9-8.2,2.8c-2.4,1.9-4.2,4.5-5.5,8c-1.3,3.5-1.9,7.8-1.9,12.7v0.2c0,5,0.6,9.3,1.9,12.8
				c1.3,3.5,3.1,6.2,5.4,8c2.3,1.8,5.1,2.7,8.4,2.7C875.1,147.2,877.8,146.3,880.2,144.4z"/>
			<path d="M926.8,80.4H955v15.2h0.6c2.2-5.4,5.5-9.6,9.9-12.6c4.4-3,9.8-4.4,16.3-4.4c9.5,0,16.8,2.9,22,8.6
				c5.2,5.7,7.7,13.7,7.7,24v55.6h-28.1v-49.5c0-4.9-1.2-8.8-3.5-11.5c-2.3-2.8-5.8-4.2-10.4-4.2c-3,0-5.5,0.7-7.7,2.1
				c-2.2,1.4-3.8,3.3-5,5.7c-1.2,2.4-1.8,5.3-1.8,8.5v49h-28.1V80.4z"/>
			<path d="M1066.7,164.5c-4.4-2.2-7.8-5.3-10.3-9.3c-2.5-3.9-3.7-8.4-3.7-13.4v-0.1c0-8.1,3-14.5,9.1-19c6-4.5,14.6-7.1,25.7-7.9
				l34.6-2.2V129l-30,2.1c-3.9,0.2-6.8,1.1-8.8,2.7c-2,1.6-2.9,3.6-2.9,6.2v0.1c0,2.7,1,4.8,3.1,6.2c2.1,1.5,4.8,2.2,8.3,2.2
				c3,0,5.7-0.5,8-1.6c2.3-1.1,4.1-2.6,5.5-4.5c1.3-1.9,2-4.1,2-6.5v-26.5c0-3.1-1-5.6-3-7.4c-2-1.8-4.9-2.7-8.8-2.7
				c-3.8,0-6.8,0.8-9,2.3c-2.2,1.5-3.5,3.4-4,5.6l-0.2,0.8H1057l0.1-1c0.5-5.7,2.3-10.6,5.5-14.8c3.2-4.2,7.7-7.5,13.5-9.9
				c5.8-2.4,12.7-3.6,20.7-3.6c7.7,0,14.5,1.2,20.2,3.6c5.8,2.4,10.3,5.8,13.5,10.2c3.2,4.4,4.8,9.5,4.8,15.3v59h-28.1v-12.2h-0.6
				c-1.6,2.8-3.7,5.2-6.1,7.2c-2.4,2-5.2,3.5-8.3,4.6c-3.1,1.1-6.6,1.6-10.3,1.6C1076.2,167.9,1071.1,166.7,1066.7,164.5z"/>
			<path d="M1148.7,80.4h28.1v15.4h0.6c1.5-3.6,3.5-6.7,5.9-9.2c2.5-2.6,5.4-4.5,8.8-5.9s7.1-2.1,11.1-2.1c7.3,0,13.5,1.8,18.6,5.3
				c5.1,3.5,9,8.6,11.8,15.3c2.7,6.7,4.1,14.8,4.1,24.3v0.1c0,9.5-1.3,17.5-4,24.3c-2.7,6.7-6.6,11.8-11.7,15.4
				c-5.1,3.5-11.2,5.3-18.4,5.3c-4.2,0-8-0.7-11.4-2c-3.4-1.3-6.4-3.3-8.9-5.7c-2.5-2.5-4.5-5.4-6-8.9h-0.6v42.6h-28.1V80.4z
				 M1201.7,142.9c2.4-1.8,4.3-4.3,5.6-7.6c1.3-3.3,2-7.2,2-11.7v-0.1c0-4.6-0.7-8.5-2-11.8c-1.3-3.3-3.2-5.8-5.6-7.6
				c-2.4-1.7-5.3-2.6-8.6-2.6c-3.2,0-6.1,0.9-8.5,2.7c-2.5,1.8-4.4,4.3-5.7,7.6c-1.3,3.3-2,7.2-2,11.8v0.1c0,4.6,0.7,8.5,2,11.8
				c1.3,3.3,3.3,5.8,5.7,7.6s5.3,2.7,8.5,2.7C1196.4,145.6,1199.2,144.7,1201.7,142.9z"/>
			<path d="M1248.8,80.4h28.1v15.4h0.6c1.5-3.6,3.5-6.7,5.9-9.2c2.5-2.6,5.4-4.5,8.8-5.9s7.1-2.1,11.1-2.1c7.3,0,13.5,1.8,18.6,5.3
				c5.1,3.5,9,8.6,11.8,15.3c2.7,6.7,4.1,14.8,4.1,24.3v0.1c0,9.5-1.3,17.5-4,24.3c-2.7,6.7-6.6,11.8-11.7,15.4
				c-5.1,3.5-11.2,5.3-18.4,5.3c-4.2,0-8-0.7-11.4-2c-3.4-1.3-6.4-3.3-8.9-5.7c-2.5-2.5-4.5-5.4-6-8.9h-0.6v42.6h-28.1V80.4z
				 M1301.8,142.9c2.4-1.8,4.3-4.3,5.6-7.6c1.3-3.3,2-7.2,2-11.7v-0.1c0-4.6-0.7-8.5-2-11.8c-1.3-3.3-3.2-5.8-5.6-7.6
				c-2.4-1.7-5.3-2.6-8.6-2.6c-3.2,0-6.1,0.9-8.5,2.7c-2.5,1.8-4.4,4.3-5.7,7.6c-1.3,3.3-2,7.2-2,11.8v0.1c0,4.6,0.7,8.5,2,11.8
				c1.3,3.3,3.3,5.8,5.7,7.6c2.5,1.8,5.3,2.7,8.5,2.7C1296.5,145.6,1299.3,144.7,1301.8,142.9z"/>
		</g>
	</g>
</g>
</svg>
